<svg width="25" height="25" viewBox="0 0 25 25" fill="none" xmlns="http://www.w3.org/2000/svg">
<path fill-rule="evenodd" clip-rule="evenodd" d="M12.5 0C5.60095 0 0 5.60095 0 12.5C0 19.399 5.60095 25 12.5 25C19.399 25 25 19.399 25 12.5C25 5.60095 19.399 0 12.5 0ZM12.5 1.66667C18.479 1.66667 23.3333 6.52095 23.3333 12.5C23.3333 18.479 18.479 23.3333 12.5 23.3333C6.52095 23.3333 1.66667 18.479 1.66667 12.5C1.66667 6.52095 6.52095 1.66667 12.5 1.66667ZM11.6667 11.6667H5C4.53999 11.6667 4.16667 12.04 4.16667 12.5C4.16667 12.96 4.53999 13.3333 5 13.3333H11.6667V20C11.6667 20.46 12.04 20.8333 12.5 20.8333C12.96 20.8333 13.3333 20.46 13.3333 20V13.3333H20C20.46 13.3333 20.8333 12.96 20.8333 12.5C20.8333 12.04 20.46 11.6667 20 11.6667H13.3333V5C13.3333 4.53999 12.96 4.16667 12.5 4.16667C12.04 4.16667 11.6667 4.53999 11.6667 5V11.6667Z" fill="white"/>
</svg>
