<svg width="29" height="23" viewBox="0 0 29 23" fill="none" xmlns="http://www.w3.org/2000/svg">
<path d="M14.4314 0C6.47138 0 0 6.4713 0 14.4314C0 17.6349 1.04066 20.6037 2.81215 23L4.08558 21.8725C2.73461 19.9957 1.88457 17.7335 1.72471 15.2801H5.94256V13.5825H1.72471C1.91479 10.702 3.05583 8.07429 4.84178 6.03525L7.82621 9.01968L9.03333 7.82591L8.42311 7.22903L6.03557 4.84148C8.07491 3.0556 10.7023 1.91451 13.5828 1.72441V5.94225H15.2804V1.72441C18.161 1.91449 20.7886 3.05553 22.8277 4.84148L20.4401 7.22903L19.8299 7.82591L21.037 9.01968L24.0214 6.03525C25.8073 8.07429 26.9484 10.702 27.1385 13.5825H22.9207V15.2801H27.1385C26.9786 17.7331 26.1286 19.9954 24.7776 21.8725L26.0511 23C27.8222 20.6033 28.8626 17.6348 28.8626 14.4314C28.8626 6.47138 22.3916 0 14.4313 0H14.4314ZM21.9389 12.4418L14.3917 17.8271C13.8609 17.8365 13.3377 18.0453 12.9327 18.4506C12.1039 19.2793 12.1039 20.6193 12.9327 21.4484C13.7614 22.2771 15.1014 22.2771 15.9304 21.4484C16.3355 21.0433 16.5448 20.5202 16.554 19.9893L21.9393 12.4421L21.9389 12.4418Z" fill="white"/>
</svg>
