<svg width="26" height="26" viewBox="0 0 26 26" fill="none" xmlns="http://www.w3.org/2000/svg">
<path d="M11.6875 0V12.75H13.8125V0H11.6875ZM8.5 0.730469C3.55688 2.48608 0 7.20923 0 12.75C0 19.7808 5.71924 25.5 12.75 25.5C19.7808 25.5 25.5 19.7808 25.5 12.75C25.5 7.20923 21.9431 2.48608 17 0.730469V3.02148C20.7478 4.66504 23.375 8.40454 23.375 12.75C23.375 18.6104 18.6104 23.375 12.75 23.375C6.88965 23.375 2.125 18.6104 2.125 12.75C2.125 8.40454 4.7522 4.66504 8.5 3.02148V0.730469Z" fill="white"/>
</svg>
