<svg width="21" height="25" viewBox="0 0 21 25" fill="none" xmlns="http://www.w3.org/2000/svg">
<path fill-rule="evenodd" clip-rule="evenodd" d="M6.08645 22.5811L9.59525 24.7427C10.1517 25.0858 10.8482 25.0858 11.4047 24.7427L14.9135 22.5811L18.4633 24.4036C19.0059 24.6822 19.6508 24.6535 20.168 24.3286C20.685 24.0035 21 23.4285 21 22.8089V2.67866C21 1.96792 20.7234 1.28673 20.2309 0.784873C19.7391 0.282224 19.0715 0 18.375 0H2.625C1.9285 0 1.26095 0.282213 0.76915 0.784873C0.27657 1.28672 0 1.96797 0 2.67866V22.8089C0 23.4286 0.31504 24.0035 0.83205 24.3286C1.34925 24.6535 1.99415 24.6822 2.53675 24.4036L6.08645 22.5811ZM19.25 22.8089L15.7002 20.9855C15.1629 20.7096 14.5242 20.7347 14.0088 21.0524L10.5 23.2143L6.99115 21.0524C6.4757 20.7347 5.83705 20.7096 5.29975 20.9855L1.74995 22.8089V2.67864C1.74995 2.44207 1.84175 2.21426 2.0064 2.04745C2.16987 1.87943 2.39311 1.78576 2.62494 1.78576H18.3749C18.6068 1.78576 18.83 1.87943 18.9935 2.04745C19.1581 2.21426 19.2499 2.44207 19.2499 2.67864L19.25 22.8089ZM16.625 16.9648C16.1419 16.9648 15.75 17.3648 15.75 17.8577C15.75 18.3506 16.1419 18.7506 16.625 18.7506C17.108 18.7506 17.5 18.3506 17.5 17.8577C17.5 17.3648 17.108 16.9648 16.625 16.9648ZM14 16.9648H4.37495C3.89194 16.9648 3.49995 17.3648 3.49995 17.8577C3.49995 18.3506 3.89194 18.7506 4.37495 18.7506H14C14.483 18.7506 14.875 18.3506 14.875 17.8577C14.875 17.3648 14.483 16.9648 14 16.9648ZM16.625 12.5004C16.1419 12.5004 15.75 12.9004 15.75 13.3933C15.75 13.8862 16.1419 14.2862 16.625 14.2862C17.108 14.2862 17.5 13.8862 17.5 13.3933C17.5 12.9004 17.108 12.5004 16.625 12.5004ZM14 12.5004H4.37495C3.89194 12.5004 3.49995 12.9004 3.49995 13.3933C3.49995 13.8862 3.89194 14.2862 4.37495 14.2862H14C14.483 14.2862 14.875 13.8862 14.875 13.3933C14.875 12.9004 14.483 12.5004 14 12.5004ZM16.625 8.03596C16.1419 8.03596 15.75 8.43596 15.75 8.92885C15.75 9.42173 16.1419 9.82173 16.625 9.82173C17.108 9.82173 17.5 9.42173 17.5 8.92885C17.5 8.43596 17.108 8.03596 16.625 8.03596ZM14 8.03596H4.37495C3.89194 8.03596 3.49995 8.43596 3.49995 8.92885C3.49995 9.42173 3.89194 9.82173 4.37495 9.82173H14C14.483 9.82173 14.875 9.42173 14.875 8.92885C14.875 8.43596 14.483 8.03596 14 8.03596ZM16.625 3.57153C16.1419 3.57153 15.75 3.97153 15.75 4.46441C15.75 4.9573 16.1419 5.3573 16.625 5.3573C17.108 5.3573 17.5 4.9573 17.5 4.46441C17.5 3.97153 17.108 3.57153 16.625 3.57153ZM14 3.57153H4.37495C3.89194 3.57153 3.49995 3.97153 3.49995 4.46441C3.49995 4.9573 3.89194 5.3573 4.37495 5.3573H14C14.483 5.3573 14.875 4.9573 14.875 4.46441C14.875 3.97153 14.483 3.57153 14 3.57153Z" fill="white"/>
</svg>
