<?xml version="1.0" encoding="utf-8"?>
<!-- Generator: Adobe Illustrator 21.1.0, SVG Export Plug-In . SVG Version: 6.00 Build 0)  -->
<svg version="1.1" xmlns="http://www.w3.org/2000/svg" xmlns:xlink="http://www.w3.org/1999/xlink" x="0px" y="0px"
	 viewBox="0 0 48 48" style="enable-background:new 0 0 48 48;" xml:space="preserve">
<style type="text/css">
	.st0{fill:#FFD4C3;stroke:#504B46;stroke-linecap:round;stroke-linejoin:round;stroke-miterlimit:10;}
	.st1{fill:#FFC258;}
	.st2{fill:#4F4B45;}
	.st3{fill:#FABFA5;}
	.st4{fill:none;stroke:#504B46;stroke-linecap:round;stroke-linejoin:round;stroke-miterlimit:10;}
	.Graphic_x0020_Style{opacity:0.15;fill:#45413C;}
	.st5{opacity:0.15;fill:#45413C;}
	.st6{fill:#DEBB7E;stroke:#45413C;stroke-linecap:round;stroke-linejoin:round;stroke-miterlimit:10;}
	.st7{fill:#F0D5A8;}
	.st8{fill:#F7E5C6;}
	.st9{fill:#DEBB7E;}
	.st10{fill:none;stroke:#45413C;stroke-linecap:round;stroke-linejoin:round;stroke-miterlimit:10;}
	.st11{fill:#FFE500;}
	.st12{fill:#EBCB00;}
	.st13{fill:none;stroke:#EBCB00;stroke-linecap:round;stroke-linejoin:round;stroke-miterlimit:10;}
	.st14{fill:#FF6242;stroke:#45413C;stroke-linecap:round;stroke-linejoin:round;stroke-miterlimit:10;}
	.st15{fill:#FFFFFF;stroke:#45413C;stroke-linecap:round;stroke-linejoin:round;stroke-miterlimit:10;}
	.st16{fill:#E5F8FF;}
	.st17{fill:#FFFFFF;}
	.st18{fill:#E8F4FA;}
	.st19{fill:#E8F4FA;stroke:#45413C;stroke-linecap:round;stroke-linejoin:round;stroke-miterlimit:10;}
	.st20{fill:#FFCCDD;}
	.st21{fill:#FFB0CA;stroke:#45413C;stroke-linecap:round;stroke-linejoin:round;stroke-miterlimit:10;}
	.st22{fill:#FF87AF;stroke:#45413C;stroke-linecap:round;stroke-linejoin:round;stroke-miterlimit:10;}
	.st23{fill:#E5F8FF;stroke:#45413C;stroke-linecap:round;stroke-linejoin:round;stroke-miterlimit:10;}
	.st24{fill:#BF8256;stroke:#45413C;stroke-linecap:round;stroke-linejoin:round;stroke-miterlimit:10;}
	.st25{fill:#9CEB60;}
	.st26{fill:#6DD627;}
	.st27{fill:#C8FFA1;}
	.st28{fill:#FFFACF;}
	.st29{fill:#FF87AF;}
	.st30{fill:#FFB0CA;}
	.st31{fill:#FF6196;}
	.st32{fill:#FFCCDD;stroke:#45413C;stroke-linecap:round;stroke-linejoin:round;stroke-miterlimit:10;}
	.st33{fill:#FF6196;stroke:#45413C;stroke-linecap:round;stroke-linejoin:round;stroke-miterlimit:10;}
	.st34{fill:#FFE5EE;}
	.st35{fill:#00B8F0;}
	.st36{fill:#4ACFFF;}
	.st37{fill:#BF8256;}
	.st38{fill:#DEA47A;}
	.st39{fill:#915E3A;}
	.st40{fill:#FFF5E3;}
	.st41{fill:#F0F0F0;}
	.st42{fill:#8CA4B8;}
	.st43{fill:#627B8C;}
	.st44{fill:#C0DCEB;}
	.st45{fill:#FFF48C;}
	.st46{fill:#FFE500;stroke:#45413C;stroke-linecap:round;stroke-linejoin:round;stroke-miterlimit:10;}
	.st47{fill:#FFAA54;}
	.st48{fill:#6DD627;stroke:#45413C;stroke-linecap:round;stroke-linejoin:round;stroke-miterlimit:10;}
	.st49{fill:#FF8A14;}
	.st50{fill:#FFCC99;}
	.st51{fill:#EBCB00;stroke:#45413C;stroke-linecap:round;stroke-linejoin:round;stroke-miterlimit:10;}
	.st52{fill:#00F5BC;stroke:#45413C;stroke-linecap:round;stroke-linejoin:round;stroke-miterlimit:10;}
	.st53{fill:#BF8DF2;stroke:#45413C;stroke-linecap:round;stroke-linejoin:round;stroke-miterlimit:10;}
	.st54{fill:#FF8A14;stroke:#45413C;stroke-linecap:round;stroke-linejoin:round;stroke-miterlimit:10;}
	.st55{fill:#4AEFF7;stroke:#45413C;stroke-linecap:round;stroke-linejoin:round;stroke-miterlimit:10;}
	.st56{fill:#FFF48C;stroke:#45413C;stroke-linecap:round;stroke-linejoin:round;stroke-miterlimit:10;}
	.st57{fill:#FF6242;}
	.st58{fill:#E04122;}
	.st59{fill:#46B000;}
	.st60{fill:none;stroke:#45413C;stroke-miterlimit:10;}
	.st61{fill:#00B8F0;stroke:#45413C;stroke-linecap:round;stroke-linejoin:round;stroke-miterlimit:10;}
	.st62{fill:#FF866E;}
	.st63{fill:#9F5AE5;stroke:#45413C;stroke-linecap:round;stroke-linejoin:round;stroke-miterlimit:10;}
	.st64{fill:#E4FFD1;}
	.st65{fill:#FFFEF2;}
	.st66{fill:#B89558;}
	.st67{fill:none;stroke:#915E3A;stroke-linecap:round;stroke-linejoin:round;stroke-miterlimit:10;}
	.st68{fill:#915E3A;stroke:#45413C;stroke-linecap:round;stroke-linejoin:round;stroke-miterlimit:10;}
	.st69{fill:#BF8DF2;}
	.st70{fill:#9F5AE5;}
	.st71{fill:#DABFF5;}
	.st72{fill:none;stroke:#45413C;stroke-linejoin:round;stroke-miterlimit:10;}
	.st73{fill:#656769;}
	.st74{fill:#87898C;}
	.st75{fill:#E0E0E0;}
	.st76{fill:#BDBEC0;}
	.st77{fill:#656769;stroke:#45413C;stroke-linecap:round;stroke-linejoin:round;stroke-miterlimit:10;}
	.st78{fill:#45413C;stroke:#45413C;stroke-linecap:round;stroke-linejoin:round;stroke-miterlimit:10;}
	.st79{fill:#FFA694;}
	.st80{fill:#E04122;stroke:#45413C;stroke-linecap:round;stroke-linejoin:round;stroke-miterlimit:10;}
	.st81{fill:#E0E0E0;stroke:#45413C;stroke-linecap:round;stroke-linejoin:round;stroke-miterlimit:10;}
	.st82{fill:#F0F0F0;stroke:#45413C;stroke-linecap:round;stroke-linejoin:round;stroke-miterlimit:10;}
	.st83{fill:#DAEDF7;}
	.st84{fill:#BDBEC0;stroke:#45413C;stroke-linecap:round;stroke-linejoin:round;stroke-miterlimit:10;}
	.st85{fill:#87898C;stroke:#45413C;stroke-linecap:round;stroke-linejoin:round;stroke-miterlimit:10;}
	.st86{fill:#00DFEB;}
	.st87{fill:#4AEFF7;}
	.st88{fill:#DAEDF7;stroke:#45413C;stroke-linecap:round;stroke-linejoin:round;stroke-miterlimit:10;}
	.st89{fill:#FFDA8F;}
	.st90{fill:#FFBE3D;}
	.st91{fill:#FFE9BD;}
	.st92{fill:#DEA47A;stroke:#45413C;stroke-linecap:round;stroke-linejoin:round;stroke-miterlimit:10;}
	.st93{fill:#45413C;}
	.st94{fill:#F0C2A1;}
	.st95{fill:none;stroke:#45413C;stroke-width:1.0064;stroke-linecap:round;stroke-linejoin:round;stroke-miterlimit:10;}
	.st96{fill:#525252;}
	.st97{fill:#EB6D00;stroke:#45413C;stroke-linecap:round;stroke-linejoin:round;stroke-miterlimit:10;}
	.st98{fill:#EB6D00;}
	.st99{fill:#E5FEFF;}
	.st100{fill:#FF866E;stroke:#45413C;stroke-linecap:round;stroke-linejoin:round;stroke-miterlimit:10;}
	.st101{fill:#627B8C;stroke:#45413C;stroke-linecap:round;stroke-linejoin:round;stroke-miterlimit:10;}
	.st102{fill:#FFFCE5;stroke:#45413C;stroke-linecap:round;stroke-linejoin:round;stroke-miterlimit:10;}
	.st103{fill:#A6FBFF;}
	.st104{fill:#D9FDFF;}
	.st105{fill:#FFFACF;stroke:#45413C;stroke-linecap:round;stroke-linejoin:round;stroke-miterlimit:10;}
	.st106{fill:#B8ECFF;}
	.st107{fill:#FFCABF;}
	.st108{fill:#E5FFF9;}
	.st109{fill:#C8FFA1;stroke:#45413C;stroke-linecap:round;stroke-linejoin:round;stroke-miterlimit:10;}
	.st110{fill:#4CF4FC;}
	.st111{fill:#F0D5A8;stroke:#45413C;stroke-linecap:round;stroke-linejoin:round;stroke-miterlimit:10;}
	.st112{fill:#FFDCD1;stroke:#45413C;stroke-linecap:round;stroke-linejoin:round;stroke-miterlimit:10;}
	.st113{fill:#80DDFF;}
	.st114{fill:#46B000;stroke:#45413C;stroke-linecap:round;stroke-linejoin:round;stroke-miterlimit:10;}
	.st115{fill:#4ACFFF;stroke:#45413C;stroke-linecap:round;stroke-linejoin:round;stroke-miterlimit:10;}
	.st116{fill:#ADC4D9;}
	.st117{fill:#BDBEC0;stroke:#45413C;stroke-width:1.0064;stroke-linecap:round;stroke-linejoin:round;stroke-miterlimit:10;}
	.st118{fill:#FFFCE5;}
	.st119{fill:#947746;}
	.st120{fill:#525252;stroke:#45413C;stroke-linecap:round;stroke-linejoin:round;stroke-miterlimit:10;}
</style>
<symbol  id="New_Symbol_14" viewBox="-6.5 -6.5 13 13">
	<path class="st0" d="M0-6c2.2,0,4.1,1.5,4.7,3.5c0,0,0,0,0,0C6.3-2.5,6.4,0,5,0v1c0,2.8-2.2,5-5,5c-2.8,0-5-2.2-5-5V0
		c-1.4,0-1.3-2.5,0.2-2.5c0,0,0,0,0,0C-4.1-4.5-2.2-6,0-6z"/>
	<g>
		<circle class="st1" cx="-1.6" cy="-0.1" r="0.1"/>
		<path class="st2" d="M-1.6,0.5c-0.3,0-0.6-0.3-0.6-0.6S-2-0.8-1.6-0.8C-1.3-0.8-1-0.5-1-0.1S-1.3,0.5-1.6,0.5L-1.6,0.5z"/>
	</g>
	<g>
		<circle class="st1" cx="1.6" cy="-0.1" r="0.1"/>
		<path class="st2" d="M1.6,0.5C1.3,0.5,1,0.2,1-0.1s0.3-0.6,0.6-0.6c0.3,0,0.6,0.3,0.6,0.6S2,0.5,1.6,0.5L1.6,0.5z"/>
	</g>
	<circle class="st3" cx="-3" cy="-1.5" r="0.5"/>
	<circle class="st3" cx="3" cy="-1.5" r="0.5"/>
	<path class="st4" d="M-1.2-3c0.8-0.5,1.7-0.5,2.5,0"/>
</symbol>
<g id="Bg">
</g>
<g id="Icons">
	<g id="XMLID_1315_">
		<ellipse id="XMLID_1328_" class="st5" cx="24" cy="45" rx="15.5" ry="1.7"/>
		
			<ellipse id="XMLID_1298_" transform="matrix(0.5813 -0.8137 0.8137 0.5813 5.8823 33.0741)" class="st73" cx="35.1" cy="10.8" rx="10" ry="8.9"/>
		<path id="XMLID_1297_" class="st74" d="M27.9,7.9c3.2-4.5,9-5.8,13-3c2,1.4,3.1,3.6,3.4,5.9c0.3-3.2-0.8-6.3-3.4-8.2
			c-4-2.8-9.8-1.5-13,3c-1.6,2.3-2.3,4.9-2,7.3C26.1,11.3,26.7,9.5,27.9,7.9z"/>
		
			<ellipse id="XMLID_1296_" transform="matrix(0.5813 -0.8137 0.8137 0.5813 5.8823 33.0741)" class="st10" cx="35.1" cy="10.8" rx="10" ry="8.9"/>
		
			<ellipse id="XMLID_1295_" transform="matrix(0.5813 -0.8137 0.8137 0.5813 5.8203 32.9535)" class="st75" cx="34.9" cy="10.8" rx="6.8" ry="6.1"/>
		
			<ellipse id="XMLID_1294_" transform="matrix(0.8137 -0.5813 0.5813 0.8137 -3.8553 9.6136)" class="st73" cx="13.1" cy="10.8" rx="8.9" ry="10"/>
		<path id="XMLID_1293_" class="st74" d="M7.3,4.9c4-2.8,9.8-1.5,13,3c1.1,1.6,1.8,3.4,2,5.1c0.3-2.4-0.4-5.1-2-7.3
			c-3.2-4.5-9-5.8-13-3c-2.6,1.8-3.7,5-3.4,8.2C4.1,8.5,5.3,6.3,7.3,4.9z"/>
		
			<ellipse id="XMLID_1292_" transform="matrix(0.8137 -0.5813 0.5813 0.8137 -3.8553 9.6136)" class="st10" cx="13.1" cy="10.8" rx="8.9" ry="10"/>
		
			<ellipse id="XMLID_1291_" transform="matrix(0.8137 -0.5813 0.5813 0.8137 -3.8277 9.6997)" class="st75" cx="13.2" cy="10.8" rx="6.1" ry="6.8"/>
		<path id="XMLID_1290_" class="st76" d="M30,9.8c2.2-3.1,6.2-4,8.9-2c1.2,0.9,1.9,2.2,2.2,3.6c0.4-2.4-0.3-4.7-2.2-6.1
			c-2.7-1.9-6.7-1-8.9,2c-1.2,1.7-1.6,3.7-1.3,5.5C28.9,11.8,29.3,10.7,30,9.8z"/>
		<path id="XMLID_1289_" class="st76" d="M9.3,7.8c2.7-1.9,6.7-1,8.9,2c0.7,0.9,1.1,2,1.3,3c0.3-1.8,0-3.8-1.3-5.5
			c-2.2-3.1-6.2-4-8.9-2C7.4,6.6,6.6,9,7,11.4C7.3,9.9,8,8.6,9.3,7.8z"/>
		
			<ellipse id="XMLID_1277_" transform="matrix(0.5813 -0.8137 0.8137 0.5813 5.8203 32.9535)" class="st10" cx="34.9" cy="10.8" rx="6.8" ry="6.1"/>
		
			<ellipse id="XMLID_1263_" transform="matrix(0.8137 -0.5813 0.5813 0.8137 -3.8277 9.6997)" class="st10" cx="13.2" cy="10.8" rx="6.1" ry="6.8"/>
		<path id="XMLID_1262_" class="st41" d="M44.8,25.2L44.8,25.2C43,13.8,34.2,5.5,24,5.5c-10.2,0-19,8.3-20.8,19.7l0,0
			c-1.2,7.8,4.1,15,11.1,15H16c1.9,1.6,4.7,2.7,7.9,2.7c3.2,0,6-1,7.9-2.7h2C40.7,40.2,46,33,44.8,25.2z"/>
		<path id="XMLID_1261_" class="st17" d="M3.2,29.6C5,18.2,13.8,9.9,24,9.9c10.2,0,19,8.3,20.8,19.7c0,0,0,0,0,0
			c0.2-1.4,0.2-2.9,0-4.4C43,13.8,34.2,5.5,24,5.5c-10.2,0-19,8.3-20.8,19.7C3,26.7,3,28.2,3.2,29.6C3.2,29.6,3.2,29.6,3.2,29.6z"/>
		<path id="XMLID_1260_" class="st10" d="M44.8,25.2L44.8,25.2C43,13.8,34.2,5.5,24,5.5c-10.2,0-19,8.3-20.8,19.7l0,0
			c-1.2,7.8,4.1,15,11.1,15H16c1.9,1.6,4.7,2.7,7.9,2.7c3.2,0,6-1,7.9-2.7h2C40.7,40.2,46,33,44.8,25.2z"/>
		<path id="XMLID_1259_" class="st77" d="M27.9,32.5c0,1.1-1.7,3-3.9,3s-3.9-1.8-3.9-3c0-1.1,1.7-2,3.9-2S27.9,31.3,27.9,32.5z"/>
		<path id="XMLID_1258_" class="st77" d="M28.1,20.1c-0.9,5.1,3.1,7.7,6.1,8.8c3.1,1.2,4.8-1,4.8-4.1c-0.1-3.1-2-7.3-5.4-8.2
			C30.6,15.9,28.3,18.6,28.1,20.1z"/>
		<path id="XMLID_1257_" class="st77" d="M19.8,20.1c0.9,5.1-3.1,7.7-6.1,8.8c-3.1,1.2-4.8-1-4.8-4.1c0.1-3.1,2-7.3,5.4-8.2
			C17.3,15.9,19.5,18.6,19.8,20.1z"/>
		<circle id="XMLID_1256_" class="st78" cx="31.8" cy="22.1" r="1.7"/>
		<circle id="XMLID_1255_" class="st78" cx="16.2" cy="22.1" r="1.7"/>
		<circle id="XMLID_1254_" class="st79" cx="41.4" cy="29.7" r="2"/>
		<circle id="XMLID_1252_" class="st79" cx="6.6" cy="29.7" r="2"/>
		<line id="XMLID_1251_" class="st10" x1="24" y1="35.4" x2="24" y2="37.6"/>
	</g>
</g>
</svg>
