<svg width="238" height="349" viewBox="0 0 238 349" fill="none" xmlns="http://www.w3.org/2000/svg">
<path d="M59.5 0H0L85 153H144.5L59.5 0Z" fill="#E64A19" fill-opacity="0.3"/>
<path d="M178.5 0L93.5001 153H153L238 0H178.5Z" fill="#FF754C" fill-opacity="0.3"/>
<path d="M144.5 153L143.922 151.887L143.353 153H144.5Z" fill="#C93D18" fill-opacity="0.3"/>
<path d="M109.038 88.7229L79.7644 143.318L89.2589 161.857L118.864 107.176L109.038 88.7229Z" fill="#C93D18" fill-opacity="0.3"/>
<path d="M119 348.5C175.333 348.5 221 302.833 221 246.5C221 190.167 175.333 144.5 119 144.5C62.6672 144.5 17.0002 190.167 17.0002 246.5C17.0002 302.833 62.6672 348.5 119 348.5Z" fill="#FFBA57" fill-opacity="0.3"/>
<path d="M119 161.5C72.0716 161.5 34.0001 199.563 34.0001 246.5C34.0001 293.429 72.0716 331.5 119 331.5C165.929 331.5 204 293.429 204 246.5C204 199.563 165.929 161.5 119 161.5ZM144.5 221H127.5V272H144.5V289H93.5001V272H110.5V221H93.5001V204H144.5V221Z" fill="#FFE082" fill-opacity="0.3"/>
</svg>
